<?xml version="1.0" encoding="UTF-8" standalone="no"?>
<!DOCTYPE svg PUBLIC "-//W3C//DTD SVG 1.1//EN" "http://www.w3.org/Graphics/SVG/1.1/DTD/svg11.dtd">
<svg width="100%" height="100%" viewBox="0 0 2550 3300" version="1.1" xmlns="http://www.w3.org/2000/svg" xmlns:xlink="http://www.w3.org/1999/xlink" xml:space="preserve" xmlns:serif="http://www.serif.com/" style="fill-rule:evenodd;clip-rule:evenodd;stroke-linecap:round;stroke-linejoin:round;stroke-miterlimit:1.5;">
    <g transform="matrix(0.154207,0,0,0.154207,1452.8,1576.96)">
        <g transform="matrix(1,0,0,1,-6875,-5312.5)">
            <g transform="matrix(7.82842,0,0,7.82842,-65.6863,317.2)">
                <g>
                    <g transform="matrix(0.416667,0,0,-0.416667,-80.4969,1236.49)">
                        <rect x="370.21" y="370.21" width="3739.58" height="2399.58" style="fill:white;fill-rule:nonzero;"/>
                    </g>
                    <g transform="matrix(0.416667,0,0,-0.416667,0,1308.33)">
                        <path d="M2580.54,2188.28C2579.24,2180.77 2576.62,2165.74 2568.62,2163.74C2561.62,2161.74 2560.07,2158.14 2557.26,2154.02C2553.37,2148.33 2549.07,2137.83 2545.3,2129.57C2540.91,2119.93 2535.91,2105.91 2530.86,2096.15C2526.3,2087.35 2519,2076 2515,2071C2512,2065 2493,2060 2474,2060C2452,2060 2434,2053 2423,2040C2413,2029 2395,2020 2382,2020C2363,2020 2360,2024 2365,2040C2369,2054 2367,2060 2357,2060C2349,2060 2337,2053 2330,2045C2323,2037 2307,2030 2295,2030C2282,2030 2263,2041 2252,2055C2241,2069 2227,2080 2222,2080C2216,2080 2191,2100 2166,2125C2142,2150 2106,2177 2086,2185C2067,2193 2037,2200 2021,2200C2002,2200 1980,2189 1959,2169C1927,2139 1922,2138 1867,2143C1830,2146 1801,2155 1788,2167C1777,2177 1762,2197 1754,2212C1745,2229 1729,2241 1708,2245C1690,2249 1653,2266 1626,2282C1599,2298 1570,2318 1563,2326C1555,2334 1546,2340 1542,2340C1538,2340 1519,2353 1500,2370C1481,2386 1439,2409 1405,2421C1372,2433 1329,2451 1310,2461C1291,2470 1260,2483 1241,2489C1222,2495 1204,2497 1201,2494C1198,2490 1201,2485 1208,2483C1214,2480 1220,2471 1220,2462C1220,2453 1211,2434 1201,2421C1183,2397 1181,2397 1156,2413C1142,2422 1123,2430 1115,2430C1106,2430 1100,2436 1103,2443C1105,2449 1103,2463 1098,2473C1093,2482 1078,2490 1065,2490C1047,2490 1040,2495 1040,2510C1040,2521 1036,2530 1030,2530C1025,2530 1020,2539 1020,2550C1020,2563 1015,2568 1005,2564C994,2559 990,2565 990,2584C990,2598 985,2610 980,2610C974,2610 964,2621 958,2635C952,2649 941,2660 933,2660C926,2660 920,2669 920,2680C920,2690 900,2720 875,2745C850,2771 821,2792 808,2792C795,2793 780,2797 773,2802C767,2807 759,2807 756,2802C753,2797 756,2781 763,2766C770,2752 778,2740 782,2740C785,2740 792,2726 795,2708C799,2690 806,2669 810,2660C814,2652 825,2629 835,2610C845,2591 864,2560 877,2542C890,2524 932,2489 969,2465C1023,2429 1038,2415 1038,2395C1038,2381 1043,2363 1050,2355C1057,2347 1069,2340 1077,2340C1084,2340 1093,2333 1096,2325C1100,2317 1107,2310 1113,2310C1118,2310 1141,2295 1164,2277C1187,2258 1264,2200 1337,2147C1410,2094 1474,2050 1480,2050C1486,2050 1503,2036 1518,2018C1532,2001 1578,1962 1619,1932C1659,1902 1709,1860 1729,1840C1753,1815 1770,1785 1778,1754C1784,1727 1792,1632 1796,1542C1803,1382 1802,1379 1782,1373C1765,1369 1762,1362 1766,1341C1771,1317 1767,1312 1728,1293C1705,1281 1676,1270 1665,1268C1654,1266 1644,1256 1642,1245C1640,1234 1629,1215 1618,1203C1607,1191 1588,1162 1576,1138C1564,1115 1539,1068 1520,1035C1502,1002 1480,964 1470,950C1461,936 1446,910 1437,891C1427,872 1420,852 1420,846C1420,840 1443,820 1470,802C1497,785 1523,770 1527,770C1531,770 1544,760 1555,747C1566,735 1597,706 1624,682C1651,659 1677,640 1681,640C1686,640 1690,646 1690,653C1690,659 1696,676 1704,690C1711,704 1732,740 1749,770C1766,800 1792,850 1807,880C1821,910 1836,953 1839,975L1845,1015L2080,1022C2209,1026 2378,1031 2454,1033L2593,1037L2610,1079C2619,1103 2629,1122 2633,1123C2637,1124 2650,1105 2662,1080L2685,1035L2833,1032C2962,1030 2980,1031 2980,1045C2980,1054 2972,1082 2961,1108C2951,1134 2938,1171 2931,1191C2925,1210 2920,1233 2920,1242C2920,1251 2913,1271 2905,1286C2896,1304 2890,1343 2890,1390C2890,1435 2885,1471 2878,1478C2869,1487 2869,1496 2878,1515C2885,1529 2890,1556 2890,1575C2890,1594 2885,1621 2878,1635C2872,1649 2839,1679 2806,1701C2772,1723 2731,1754 2714,1770C2697,1785 2674,1801 2662,1804C2651,1808 2639,1818 2636,1826C2633,1834 2614,1848 2595,1856C2575,1864 2556,1880 2551,1891C2545,1909 2542,1906 2530,1871C2520,1841 2520,1826 2528,1818C2534,1812 2536,1802 2534,1795C2531,1788 2533,1779 2539,1775C2545,1772 2550,1764 2550,1758C2550,1752 2572,1708 2579,1694C2584,1681 2592,1648 2596,1620C2600,1592 2607,1567 2611,1564C2616,1561 2620,1548 2620,1534C2620,1520 2624,1500 2630,1490C2635,1480 2643,1447 2646,1415C2653,1359 2653,1358 2614,1325C2593,1307 2572,1294 2568,1296C2564,1299 2522,1256 2505,1246C2494,1240 2483,1232 2480,1229C2477,1225 2456,1213 2432,1201L2337.37,1180.82L2394,1232C2395.01,1241.78 2396.25,1258.04 2397.6,1278.22C2400.26,1317.87 2403.35,1372.63 2406,1423L2413,1561C2413,1561 2419.28,1631.36 2420,1650C2420.3,1657.66 2417.31,1672.85 2417.31,1672.85L2412.59,1711.43L2397.85,1763.74C2397.85,1763.74 2455.03,1827.38 2451.03,1840.38C2446.03,1853.38 2420,1860 2420,1870C2420,1884 2433,1893 2471,1904C2507,1915 2535,1933 2568,1967C2594,1994 2627,2024 2641,2035C2655,2046 2673,2073 2680,2095C2687,2117 2698,2142 2704,2150C2711,2158 2722,2177 2729,2192C2738,2210 2740,2233 2736,2261C2732,2285 2723,2318 2716,2334C2709,2351 2694,2385 2684,2410C2674,2435 2654,2467 2640,2481C2626,2495 2594,2515 2568,2524C2540,2534 2501,2540 2468,2538C2416,2535 2415,2534 2379,2480C2358,2450 2339,2411 2336,2393L2331,2362L2364,2396C2382,2415 2417,2437 2441,2445C2481,2459 2489,2458 2531,2443C2556,2433 2590,2414 2606,2400C2622,2386 2643,2363 2653,2348C2662,2333 2670,2314 2670,2306C2670,2298 2660,2289 2648,2285C2635,2282 2615,2274 2603,2268C2589.97,2261.87 2583.58,2238.47 2580.38,2226.78" style="fill-rule:nonzero;"/>
                        <g transform="matrix(2.4,0,0,-2.4,0,3140)">
                            <path d="M1161.62,509.785L1159.94,509.817" style="fill:none;stroke:black;stroke-width:0.05px;"/>
                        </g>
                        <g transform="matrix(2.4,0,0,-2.4,0,3140)">
                            <path d="M1234.34,526.491C1233.97,526.45 1234.02,526.522 1229.74,526.522" style="fill:white;stroke:black;stroke-width:0.05px;"/>
                        </g>
                        <path d="M2366,2308C2346,2311 2339,2308 2342,2298C2345,2291 2359,2284 2374,2282C2394,2279 2401,2282 2398,2292C2395,2299 2381,2306 2366,2308Z" style="fill-rule:nonzero;"/>
                        <path d="M2366,2308C2346,2311 2339,2308 2342,2298C2345,2291 2359,2284 2374,2282C2394,2279 2401,2282 2398,2292C2395,2299 2381,2306 2366,2308Z" style="fill-rule:nonzero;"/>
                        <g transform="matrix(1.33823,0.052836,-0.0643788,1.63059,-507.477,-1606.14)">
                            <path d="M2365.76,2306.93L2365.79,2306.92C2374.57,2305.75 2383,2302.83 2388.97,2299.2C2392.77,2296.89 2395.57,2294.31 2396.72,2291.7C2397.76,2288.19 2397.58,2285.66 2395.66,2284.06C2394.51,2283.11 2392.78,2282.52 2390.47,2282.22C2386.61,2281.71 2381.25,2282.03 2374.24,2283.08L2374.21,2283.08C2365.43,2284.25 2357,2287.17 2351.03,2290.8C2347.23,2293.11 2344.43,2295.69 2343.28,2298.3C2342.24,2301.81 2342.42,2304.34 2344.34,2305.94C2345.49,2306.89 2347.22,2307.48 2349.53,2307.78C2353.39,2308.29 2358.75,2307.97 2365.76,2306.93Z" style="fill-rule:nonzero;"/>
                        </g>
                        <path d="M2435,2235C2430,2236 2410,2232 2393,2226C2375,2221 2360,2213 2360,2209C2360,2205 2367,2194 2376,2185C2385,2176 2404,2170 2419,2172C2440,2174 2445,2180 2445,2204C2445,2220 2441,2234 2435,2235Z" style="fill-rule:nonzero;"/>
                        <path d="M2350,2160C2336,2159 2319,2153 2313,2145C2302,2134 2306,2132 2335,2137C2359,2141 2376,2138 2388,2128C2397,2120 2411,2110 2418,2106C2424,2102 2430,2101 2430,2104C2430,2107 2418,2121 2403,2135C2388,2149 2364,2160 2350,2160Z" style="fill-rule:nonzero;"/>
                    </g>
                </g>
            </g>
        </g>
    </g>
    <g transform="matrix(0.155094,0,0,0.155094,1558.44,2042.84)">
        <g transform="matrix(1,0,0,1,-1348.56,-955.052)">
            <g transform="matrix(300,0,0,-300,0,1910.1)">
                <g>
                    <g>
                        <g>
                            <path d="M1.155,5.252L1.155,5.607L1.296,5.611L1.39,5.609L1.48,5.605L1.566,5.597L1.649,5.585L1.728,5.575L1.804,5.56L1.804,5.254L1.67,5.269L1.552,5.28L1.446,5.284L1.333,5.283L1.255,5.279L1.225,5.275L1.199,5.27L1.176,5.262L1.155,5.252ZM1.296,4.108L1.195,4.11L1.104,4.116L1.024,4.126L0.956,4.14L0.896,4.159L0.868,4.171L0.843,4.184L0.819,4.199L0.797,4.215L0.777,4.233L0.758,4.253L0.741,4.274L0.725,4.297L0.711,4.322L0.698,4.349L0.676,4.409L0.659,4.477L0.646,4.555L0.637,4.644L0.632,4.746L0.63,4.859L0.631,4.956L0.635,5.044L0.641,5.123L0.649,5.192L0.66,5.255L0.675,5.311L0.694,5.361L0.715,5.406L0.742,5.446L0.773,5.481L0.808,5.511L0.848,5.536L0.893,5.557L0.944,5.574L1.001,5.588L1.066,5.598L1.066,4.859L1.068,4.726L1.074,4.628L1.079,4.59L1.086,4.557L1.095,4.529L1.106,4.505L1.12,4.484L1.137,4.467L1.157,4.453L1.18,4.443L1.206,4.435L1.238,4.43L1.275,4.427L1.318,4.426L1.318,4.108L1.296,4.108ZM1.407,4.112L1.407,4.689L1.256,4.689L1.256,4.998L1.811,4.998L1.811,4.161L1.758,4.15L1.698,4.14L1.633,4.132L1.561,4.125L1.486,4.116L1.407,4.112ZM2.078,4.125L2.078,5.594L2.505,5.594L2.505,4.125L2.078,4.125ZM2.595,5.267L2.595,5.594L3.137,5.594L3.137,5.267L2.595,5.267ZM2.595,4.703L2.595,5.03L3.037,5.03L3.037,4.703L2.595,4.703ZM2.595,4.125L2.595,4.451L3.137,4.451L3.137,4.125L2.595,4.125ZM4.22,4.125L3.393,5.534L3.393,5.594L3.82,5.594L4.645,4.187L4.645,4.125L4.22,4.125ZM4.645,4.364L4.239,5.058L4.239,5.594L4.645,5.594L4.645,4.364ZM3.393,4.125L3.393,5.357L3.799,4.663L3.799,4.125L3.393,4.125ZM4.922,4.125L4.922,5.594L5.349,5.594L5.349,4.125L4.922,4.125ZM5.439,4.125L5.439,4.451L5.456,4.451L5.546,4.454L5.579,4.457L5.605,4.461L5.625,4.468L5.643,4.477L5.658,4.491L5.67,4.507L5.68,4.529L5.688,4.557L5.693,4.59L5.695,4.629L5.699,4.74L5.7,4.859L5.699,4.978L5.695,5.092L5.692,5.131L5.686,5.164L5.679,5.192L5.669,5.214L5.656,5.231L5.64,5.245L5.62,5.255L5.597,5.261L5.537,5.266L5.456,5.267L5.439,5.267L5.439,5.594L5.456,5.594L5.538,5.593L5.613,5.59L5.681,5.586L5.741,5.579L5.796,5.57L5.846,5.56L5.89,5.547L5.93,5.532L5.965,5.515L5.995,5.494L6.022,5.471L6.046,5.444L6.065,5.415L6.082,5.382L6.096,5.346L6.107,5.306L6.115,5.267L6.122,5.224L6.13,5.129L6.134,5.011L6.135,4.859L6.134,4.706L6.13,4.588L6.122,4.494L6.107,4.413L6.096,4.373L6.082,4.337L6.065,4.304L6.046,4.274L6.022,4.248L5.995,4.225L5.965,4.204L5.93,4.187L5.89,4.172L5.846,4.159L5.796,4.148L5.741,4.14L5.681,4.133L5.613,4.128L5.538,4.126L5.456,4.125L5.439,4.125ZM6.374,4.125L6.374,5.594L6.801,5.594L6.801,4.125L6.374,4.125ZM6.891,5.267L6.891,5.594L7.434,5.594L7.434,5.267L6.891,5.267ZM6.891,4.703L6.891,5.03L7.333,5.03L7.333,4.703L6.891,4.703ZM6.891,4.125L6.891,4.451L7.434,4.451L7.434,4.125L6.891,4.125ZM7.69,4.125L7.69,5.594L8.117,5.594L8.117,4.125L7.69,4.125ZM8.48,4.125L8.292,4.624L8.207,4.624L8.207,4.951L8.279,4.951L8.337,4.953L8.38,4.957L8.41,4.964L8.433,4.977L8.441,4.985L8.447,4.995L8.457,5.022L8.461,5.058L8.463,5.109L8.461,5.16L8.457,5.198L8.447,5.225L8.441,5.235L8.433,5.244L8.423,5.251L8.412,5.256L8.383,5.263L8.34,5.266L8.279,5.267L8.207,5.267L8.207,5.594L8.427,5.594L8.499,5.592L8.564,5.586L8.622,5.577L8.672,5.564L8.716,5.547L8.755,5.526L8.789,5.501L8.817,5.472L8.839,5.442L8.857,5.408L8.87,5.37L8.88,5.329L8.887,5.283L8.892,5.231L8.895,5.173L8.896,5.109L8.894,5.028L8.888,4.956L8.878,4.894L8.864,4.842L8.852,4.813L8.838,4.787L8.821,4.762L8.802,4.74L8.782,4.72L8.759,4.703L8.734,4.687L8.706,4.674L8.928,4.125L8.48,4.125ZM0.668,1.349L0.668,2.818L1.095,2.818L1.095,1.349L0.668,1.349ZM2.385,2.48L2.138,2.504L1.98,2.508L1.905,2.507L1.834,2.504L1.834,2.835L1.888,2.835L1.976,2.833L2.066,2.829L2.158,2.822L2.251,2.811L2.385,2.788L2.385,2.48ZM2.033,1.334L2.033,1.782L2.031,1.821L2.027,1.847L2.018,1.864L2.005,1.875L1.985,1.882L1.954,1.887L1.691,1.919L1.635,1.927L1.584,1.938L1.538,1.952L1.496,1.969L1.459,1.99L1.427,2.014L1.4,2.04L1.377,2.07L1.361,2.099L1.347,2.13L1.336,2.164L1.328,2.201L1.323,2.241L1.319,2.286L1.315,2.389L1.317,2.446L1.323,2.499L1.333,2.548L1.346,2.593L1.363,2.633L1.384,2.67L1.409,2.702L1.437,2.73L1.463,2.75L1.493,2.769L1.526,2.784L1.563,2.798L1.603,2.809L1.647,2.819L1.694,2.826L1.745,2.831L1.745,2.401L1.747,2.354L1.75,2.337L1.755,2.324L1.764,2.314L1.777,2.306L1.795,2.302L1.821,2.299L2.116,2.263L2.199,2.248L2.266,2.231L2.293,2.22L2.319,2.206L2.343,2.19L2.364,2.171L2.386,2.143L2.406,2.111L2.422,2.074L2.436,2.031L2.446,1.984L2.454,1.932L2.459,1.876L2.46,1.814L2.458,1.749L2.453,1.689L2.443,1.634L2.43,1.583L2.413,1.538L2.393,1.499L2.368,1.464L2.34,1.434L2.312,1.411L2.281,1.392L2.248,1.375L2.211,1.362L2.172,1.352L2.129,1.344L2.082,1.338L2.033,1.334ZM1.92,1.331L1.815,1.333L1.714,1.336L1.616,1.342L1.523,1.351L1.427,1.361L1.358,1.372L1.358,1.684L1.646,1.662L1.792,1.658L1.887,1.66L1.943,1.665L1.943,1.331L1.92,1.331ZM3.235,1.349L3.235,2.818L3.662,2.818L3.662,1.349L3.235,1.349ZM3.752,2.491L3.752,2.818L4.252,2.818L4.252,2.491L3.752,2.491ZM3.752,1.885L3.752,2.211L4.173,2.211L4.173,1.885L3.752,1.885ZM4.235,1.349L4.702,2.818L4.739,2.818L4.907,2.233L4.662,1.349L4.235,1.349ZM5.258,1.349L5.183,1.609L4.826,1.609L4.916,1.938L5.087,1.938L4.835,2.818L5.225,2.818L5.693,1.349L5.258,1.349ZM5.836,1.349L5.836,2.818L6.263,2.818L6.263,1.349L5.836,1.349ZM6.684,1.349L6.353,1.863L6.353,2.322L6.69,2.818L7.156,2.818L6.65,2.126L7.162,1.349L6.684,1.349ZM7.295,1.349L7.295,2.818L7.722,2.818L7.722,1.349L7.295,1.349ZM7.812,2.491L7.812,2.818L8.354,2.818L8.354,2.491L7.812,2.491ZM7.812,1.927L7.812,2.254L8.254,2.254L8.254,1.927L7.812,1.927ZM7.812,1.349L7.812,1.675L8.354,1.675L8.354,1.349L7.812,1.349Z" style="fill:rgb(153,153,153);fill-rule:nonzero;"/>
                        </g>
                    </g>
                </g>
            </g>
        </g>
    </g>
</svg>
